# https://github.com/mikedh/trimesh
mtllib material.mtl
usemtl material_0
v -0.08343752 0.22987050 0.46669552
v -0.08343752 0.21809587 0.41596380
v -0.00000000 0.22398277 0.44133008
v -0.07505431 0.21620075 0.40779805
v 0.07505515 0.21620075 0.40779805
v 0.08343836 0.21809587 0.41596380
v 0.08343836 0.22987050 0.46669552
v 0.07505515 0.23176562 0.47486127
v -0.07505431 0.23176562 0.47486127
v 0.00097653 -0.04928876 0.24141673
v -0.00398001 -0.04891007 0.24141673
v -0.00403459 -0.04921823 0.23873064
v 0.00098325 -0.04960196 0.23873064
v 0.00591208 -0.04869344 0.24141673
v 0.00597926 -0.04899992 0.23873064
v 0.01063604 -0.04714762 0.24141673
v 0.01076199 -0.04743394 0.23873064
v 0.01496703 -0.04470923 0.24141673
v 0.01514588 -0.04496701 0.23873064
v 0.01875980 -0.04148827 0.24141673
v 0.01904360 -0.04175529 0.23873064
v 0.02182206 -0.03756956 0.24141673
v 0.02216716 -0.03781978 0.23873064
v 0.02433014 -0.03326795 0.23873064
v 0.02405641 -0.03312773 0.24141673
v 0.02569627 -0.02839370 0.23873064
v 0.02539567 -0.02834080 0.24141673
v 0.02577436 -0.02338509 0.24141673
v 0.02608000 -0.02334647 0.23873064
v 0.02519415 -0.01844702 0.24141673
v 0.02560391 -0.01832947 0.23873064
v 0.02365672 -0.01371719 0.24141673
v 0.02401442 -0.01356269 0.23873064
v 0.02145092 -0.00921239 0.23873064
v 0.02119483 -0.00939291 0.24141673
v 0.01795792 -0.00562030 0.24141673
v 0.01817539 -0.00539443 0.23873064
v 0.01404760 -0.00255132 0.24141673
v 0.01421637 -0.00228767 0.23873064
v 0.00961417 -0.00030438 0.24141673
v 0.00972752 -0.00001218 0.23873064
v 0.00482640 0.00103405 0.24141673
v 0.00488097 0.00134304 0.23873064
v -0.00013015 0.00141358 0.24141673
v -0.00013687 0.00172677 0.23873064
v -0.00506486 0.00081825 0.24141673
v -0.00513287 0.00112473 0.23873064
v -0.00978882 -0.00072757 0.24141673
v -0.00991561 -0.00044124 0.23873064
v -0.01412065 -0.00316596 0.24141673
v -0.01430034 -0.00290986 0.23873064
v -0.01789410 -0.00640287 0.24141673
v -0.01811997 -0.00618623 0.23873064
v -0.02096308 -0.01031319 0.24141673
v -0.02122673 -0.01014525 0.23873064
v -0.02321002 -0.01474746 0.24141673
v -0.02350139 -0.01463326 0.23873064
v -0.02454845 -0.01953439 0.24141673
v -0.02485745 -0.01947981 0.23873064
v -0.02492798 -0.02449093 0.24141673
v -0.02524117 -0.02449765 0.23873064
v -0.02433266 -0.02942564 0.24141673
v -0.02463829 -0.02949366 0.23873064
v -0.02283217 -0.03401189 0.24141673
v -0.02311346 -0.03416975 0.23873064
v -0.01336915 -0.04558836 0.23873064
v -0.01320121 -0.04532386 0.24141673
v -0.01699734 -0.04234557 0.24141673
v -0.01724168 -0.04255549 0.23873064
v -0.00876694 -0.04757081 0.24141673
v -0.00888030 -0.04786301 0.23873064
v 0.17433211 0.05758045 0.23943428
v 0.17046377 0.05933368 0.23943428
v 0.17032943 0.05910109 0.23713948
v 0.17424646 0.05732688 0.23713948
v 0.17846830 0.05661652 0.23943428
v 0.17843303 0.05635118 0.23713948
v 0.18271281 0.05647713 0.23943428
v 0.18273044 0.05621012 0.23713948
v 0.18690274 0.05716902 0.23943428
v 0.18697159 0.05691040 0.23713948
v 0.19088863 0.05864683 0.23943428
v 0.19103809 0.05834959 0.23713948
v 0.19449247 0.06089797 0.23943428
v 0.19469651 0.06059653 0.23713948
v 0.19776296 0.06361849 0.23713948
v 0.19758412 0.06381077 0.23943428
v 0.20028364 0.06713248 0.23713948
v 0.20005777 0.06726347 0.23943428
v 0.20181099 0.07113097 0.23943428
v 0.20206709 0.07107303 0.23713948
v 0.20278752 0.07526548 0.23943428
v 0.20315026 0.07523945 0.23713948
v 0.20293530 0.07951167 0.23943428
v 0.20326781 0.07953098 0.23713948
v 0.20248020 0.08377297 0.23713948
v 0.20222243 0.08370244 0.23943428
v 0.20072614 0.08767741 0.23943428
v 0.20096629 0.08779580 0.23713948
v 0.19848340 0.09128377 0.23943428
v 0.19869583 0.09144667 0.23713948
v 0.19558067 0.09438382 0.23943428
v 0.19575700 0.09458450 0.23713948
v 0.19212797 0.09685747 0.23943428
v 0.19226232 0.09708922 0.23713948
v 0.18825963 0.09860985 0.23943428
v 0.18834612 0.09886343 0.23713948
v 0.18412344 0.09957463 0.23943428
v 0.18415871 0.09983996 0.23713948
v 0.17987894 0.09971317 0.23943428
v 0.17986130 0.09998018 0.23713948
v 0.17568901 0.09902129 0.23943428
v 0.17561932 0.09927990 0.23713948
v 0.17171403 0.09752584 0.23943428
v 0.17159564 0.09776599 0.23713948
v 0.16810767 0.09528310 0.23943428
v 0.16794478 0.09549553 0.23713948
v 0.16500763 0.09237954 0.23943428
v 0.16480611 0.09255587 0.23713948
v 0.16253397 0.08892767 0.23943428
v 0.16230223 0.08906118 0.23713948
v 0.16078159 0.08505933 0.23943428
v 0.16052802 0.08514498 0.23713948
v 0.15981682 0.08092314 0.23943428
v 0.15955148 0.08095757 0.23713948
v 0.15968163 0.07680291 0.23943428
v 0.15940958 0.07675841 0.23713948
v 0.16389591 0.06474364 0.23713948
v 0.16410835 0.06490653 0.23943428
v 0.16193110 0.06840710 0.23943428
v 0.16167332 0.06831054 0.23713948
v 0.16701191 0.06180733 0.23943428
v 0.16683474 0.06160581 0.23713948
v 0.16848720 -0.16215151 0.24882006
v 0.16149783 -0.15898513 0.24882006
v 0.16125600 -0.15940412 0.24467379
v 0.16833186 -0.16260996 0.24467379
v 0.17596022 -0.16389381 0.24882006
v 0.17589725 -0.16437410 0.24467379
v 0.18362972 -0.16414571 0.24882006
v 0.18366163 -0.16462768 0.24467379
v 0.19120014 -0.16289545 0.24882006
v 0.19132441 -0.16336314 0.24467379
v 0.19840279 -0.16022532 0.24882006
v 0.19867316 -0.16076270 0.24467379
v 0.20491355 -0.15615714 0.24882006
v 0.20528133 -0.15670208 0.24467379
v 0.21082312 -0.15124258 0.24467379
v 0.21049984 -0.15089412 0.24882006
v 0.21537746 -0.14489303 0.24467379
v 0.21496938 -0.14465708 0.24882006
v 0.21813660 -0.13766855 0.24882006
v 0.21859925 -0.13777351 0.24467379
v 0.21990073 -0.13019805 0.24882006
v 0.22055651 -0.13024507 0.24467379
v 0.22016859 -0.12252603 0.24882006
v 0.22076811 -0.12249161 0.24467379
v 0.21934656 -0.11482714 0.24467379
v 0.21887970 -0.11495393 0.24882006
v 0.21617682 -0.10777228 0.24882006
v 0.21661093 -0.10755900 0.24467379
v 0.21212460 -0.10125647 0.24882006
v 0.21250832 -0.10096175 0.24467379
v 0.20687921 -0.09565591 0.24882006
v 0.20719828 -0.09529149 0.24467379
v 0.20064218 -0.09118553 0.24882006
v 0.20088400 -0.09076738 0.24467379
v 0.19365196 -0.08801915 0.24882006
v 0.19380814 -0.08756070 0.24467379
v 0.18617894 -0.08627685 0.24882006
v 0.18624276 -0.08579656 0.24467379
v 0.17850944 -0.08602579 0.24882006
v 0.17847838 -0.08554298 0.24467379
v 0.17093902 -0.08727521 0.24882006
v 0.17081391 -0.08680836 0.24467379
v 0.16375737 -0.08997809 0.24882006
v 0.16354325 -0.08954483 0.24467379
v 0.15724073 -0.09403032 0.24882006
v 0.15694600 -0.09364659 0.24467379
v 0.15164016 -0.09927654 0.24882006
v 0.15127658 -0.09895747 0.24467379
v 0.14717062 -0.10551358 0.24882006
v 0.14675163 -0.10527175 0.24467379
v 0.14400341 -0.11250295 0.24882006
v 0.14354579 -0.11234761 0.24467379
v 0.14226110 -0.11997597 0.24882006
v 0.14178165 -0.11991299 0.24467379
v 0.14201592 -0.12742128 0.24882006
v 0.14152555 -0.12750189 0.24467379
v 0.14963168 -0.14920891 0.24467379
v 0.15001541 -0.14891503 0.24882006
v 0.14608074 -0.14258983 0.24882006
v 0.14561556 -0.14276532 0.24467379
v 0.15526080 -0.15451559 0.24882006
v 0.15494172 -0.15487917 0.24467379
v -0.18829742 -0.14841711 0.24141673
v -0.19282489 -0.14636580 0.24141673
v -0.19298191 -0.14663702 0.23873064
v -0.18839818 -0.14871435 0.23873064
v -0.18345675 -0.14954645 0.24141673
v -0.18349705 -0.14985629 0.23873064
v -0.17848845 -0.14970851 0.24141673
v -0.17846746 -0.15002171 0.23873064
v -0.17358397 -0.14889907 0.24141673
v -0.17350420 -0.14920219 0.23873064
v -0.16891879 -0.14716936 0.24141673
v -0.16874330 -0.14751698 0.23873064
v -0.16470115 -0.14453449 0.24141673
v -0.16446185 -0.14488715 0.23873064
v -0.16087228 -0.14135048 0.23873064
v -0.16108135 -0.14112461 0.24141673
v -0.15792253 -0.13723696 0.23873064
v -0.15818619 -0.13708415 0.24141673
v -0.15613489 -0.13255667 0.24141673
v -0.15583513 -0.13262552 0.23873064
v -0.15499210 -0.12771768 0.24141673
v -0.15456723 -0.12774791 0.23873064
v -0.15481829 -0.12274770 0.24141673
v -0.15442953 -0.12272503 0.23873064
v -0.15535064 -0.11776009 0.23873064
v -0.15565376 -0.11784238 0.24141673
v -0.15740446 -0.11319064 0.24141673
v -0.15712317 -0.11305209 0.23873064
v -0.16002925 -0.10896880 0.24141673
v -0.15978071 -0.10877819 0.23873064
v -0.16342738 -0.10534145 0.24141673
v -0.16322082 -0.10510550 0.23873064
v -0.16746785 -0.10244544 0.24141673
v -0.16731167 -0.10217423 0.23873064
v -0.17199616 -0.10039414 0.24141673
v -0.17189540 -0.10009774 0.23873064
v -0.17683683 -0.09926563 0.24141673
v -0.17679569 -0.09895495 0.23873064
v -0.18180513 -0.09910273 0.24141673
v -0.18182528 -0.09879038 0.23873064
v -0.18670961 -0.09991217 0.24141673
v -0.18679106 -0.09960989 0.23873064
v -0.19136220 -0.10166371 0.24141673
v -0.19150074 -0.10138242 0.23873064
v -0.19558319 -0.10428851 0.24141673
v -0.19577380 -0.10403996 0.23873064
v -0.19921139 -0.10768663 0.24141673
v -0.19944649 -0.10748007 0.23873064
v -0.20210655 -0.11172710 0.24141673
v -0.20237776 -0.11157008 0.23873064
v -0.20415785 -0.11625457 0.24141673
v -0.20445510 -0.11615381 0.23873064
v -0.20528720 -0.12109608 0.24141673
v -0.20559788 -0.12105494 0.23873064
v -0.20544590 -0.12591828 0.24141673
v -0.20576329 -0.12597118 0.23873064
v -0.20051287 -0.14003305 0.23873064
v -0.20026349 -0.13984245 0.24141673
v -0.20281271 -0.13574488 0.24141673
v -0.20311415 -0.13585907 0.23873064
v -0.19686536 -0.14347064 0.24141673
v -0.19707276 -0.14370574 0.23873064
v -0.19050994 0.04949112 0.24353185
v -0.19574105 0.05186150 0.24353185
v -0.19592242 0.05154830 0.24042845
v -0.19062665 0.04914854 0.24042845
v -0.18491693 0.04818712 0.24353185
v -0.18496395 0.04782774 0.24042845
v -0.17917698 0.04799904 0.24353185
v -0.17915347 0.04763798 0.24042845
v -0.17351092 0.04893442 0.24353185
v -0.17341855 0.04858428 0.24042845
v -0.16812111 0.05093283 0.24353185
v -0.16791875 0.05053147 0.24042845
v -0.16324769 0.05397745 0.24353185
v -0.16297228 0.05356937 0.24042845
v -0.15882517 0.05765602 0.24042845
v -0.15906700 0.05791632 0.24353185
v -0.15541613 0.06240853 0.24042845
v -0.15572177 0.06258486 0.24353185
v -0.15335140 0.06781513 0.24353185
v -0.15300462 0.06773620 0.24042845
v -0.15203060 0.07340562 0.24353185
v -0.15154024 0.07337120 0.24042845
v -0.15183076 0.07914809 0.24353185
v -0.15138154 0.07917412 0.24042845
v -0.15244624 0.08491071 0.24042845
v -0.15279554 0.08481583 0.24353185
v -0.15481829 0.09019053 0.24353185
v -0.15449334 0.09035006 0.24042845
v -0.15785116 0.09506730 0.24353185
v -0.15756400 0.09528730 0.24042845
v -0.16177660 0.09925891 0.24353185
v -0.16153813 0.09953096 0.24042845
v -0.16644514 0.10260414 0.24353185
v -0.16626377 0.10291733 0.24042845
v -0.17167625 0.10497451 0.24353185
v -0.17155954 0.10531710 0.24042845
v -0.17726926 0.10627851 0.24353185
v -0.17722224 0.10663705 0.24042845
v -0.18300921 0.10646660 0.24353185
v -0.18303272 0.10682765 0.24042845
v -0.18867527 0.10553037 0.24353185
v -0.18876931 0.10588051 0.24042845
v -0.19405080 0.10350762 0.24353185
v -0.19421034 0.10383257 0.24042845
v -0.19892758 0.10047475 0.24353185
v -0.19914757 0.10076191 0.24042845
v -0.20311919 0.09654931 0.24353185
v -0.20339124 0.09678778 0.24042845
v -0.20646441 0.09188077 0.24353185
v -0.20677761 0.09206214 0.24042845
v -0.20883479 0.08664966 0.24353185
v -0.20917737 0.08676637 0.24042845
v -0.21013879 0.08105665 0.24353185
v -0.21049733 0.08110367 0.24042845
v -0.21032184 0.07548463 0.24353185
v -0.21068877 0.07542418 0.24042845
v -0.20462219 0.05917750 0.24042845
v -0.20433502 0.05939833 0.24353185
v -0.20727973 0.06413236 0.24353185
v -0.20762819 0.06400053 0.24042845
v -0.20040959 0.05520672 0.24353185
v -0.20064805 0.05493467 0.24042845
v -0.07872196 0.23164723 0.47435075
v -0.08134172 0.23129121 0.47282004
v -0.08291357 0.23069925 0.47026830
v -0.08291357 0.21726629 0.41239186
v -0.08134172 0.21667432 0.40984012
v -0.07872196 0.21631914 0.40830857
v 0.07872280 0.21631914 0.40830857
v 0.08134256 0.21667432 0.40984012
v 0.08291441 0.21726629 0.41239186
v 0.08291441 0.23069925 0.47026830
v 0.08134256 0.23129121 0.47282004
v 0.07872280 0.23164723 0.47435075
v -0.03353119 0.20714832 0.38794501
v 0.03353203 0.20714832 0.38794501
v 0.03353203 0.21093017 0.40431008
v -0.03353119 0.21093017 0.40431008
v 0.02526384 -0.26893424 0.20480230
v 0.02526384 -0.26990825 0.19366750
v 0.03908473 -0.26990825 0.19366750
v 0.03908473 -0.26893424 0.20480230
v 0.10640488 -0.26893424 0.20480230
v 0.10640488 -0.27006863 0.19183199
v 0.12127283 -0.27006863 0.19183199
v 0.12127283 -0.26893424 0.20480230
v -0.12175900 -0.26893424 0.20480230
v -0.12175900 -0.26996451 0.19302599
v -0.09237660 -0.26996451 0.19302599
v -0.09237660 -0.26893424 0.20480230
v -0.23714830 -0.26893424 0.20480230
v -0.23714830 -0.26994939 0.19320064
v -0.22300834 -0.26994939 0.19320064
v -0.22300834 -0.26893424 0.20480230
v 0.22353313 -0.26893424 0.20480230
v 0.22353313 -0.26996031 0.19306714
v 0.25266783 -0.26996031 0.19306714
v 0.25266783 -0.26893424 0.20480230
v -0.31776286 -0.25730488 0.12957334
v -0.31776286 -0.26059384 0.12957334
v -0.31776286 -0.26059384 0.13840830
v -0.31776286 -0.25730488 0.13840830
v -0.31776286 -0.25730488 0.11730331
v -0.31776286 -0.26059384 0.11730331
v -0.31776286 -0.26059384 0.12613827
v -0.31776286 -0.25730488 0.12613827
v -0.31776286 -0.25730488 0.10499131
v -0.31776286 -0.26059384 0.10499131
v -0.31776286 -0.26059384 0.11382626
v -0.31776286 -0.25730488 0.11382626
v -0.31776286 -0.25730488 0.09324775
v -0.31776286 -0.26059384 0.09324775
v -0.31776286 -0.26059384 0.10208271
v -0.31776286 -0.25730488 0.10208271
v -0.31776286 -0.25730488 0.08097772
v -0.31776286 -0.26059384 0.08097772
v -0.31776286 -0.26059384 0.08981268
v -0.31776286 -0.25730488 0.08981268
v -0.31776286 -0.25730488 0.06866571
v -0.31776286 -0.26059384 0.06866571
v -0.31776286 -0.26059384 0.07750067
v -0.31776286 -0.25730488 0.07750067
v -0.31776286 -0.25730488 0.05612448
v -0.31776286 -0.26059384 0.05612448
v -0.31776286 -0.26059384 0.06495943
v -0.31776286 -0.25730488 0.06495943
v -0.31776286 -0.25730488 0.04381247
v -0.31776286 -0.26059384 0.04381247
v -0.31776286 -0.26059384 0.05264742
v -0.31776286 -0.25730488 0.05264742
v -0.31776286 -0.25730488 0.03206891
v -0.31776286 -0.26059384 0.03206891
v -0.31776286 -0.26059384 0.04090387
v -0.31776286 -0.25730488 0.04090387
v -0.31776286 -0.25730488 0.01979888
v -0.31776286 -0.26059384 0.01979888
v -0.31776286 -0.26059384 0.02863384
v -0.31776286 -0.25730488 0.02863384
v -0.31776286 -0.25730488 0.00748687
v -0.31776286 -0.26059384 0.00748687
v -0.31776286 -0.26059384 0.01632183
v -0.31776286 -0.25730488 0.01632183
v 0.31801224 -0.26059384 0.12957334
v 0.31801224 -0.25730488 0.12957334
v 0.31801224 -0.25730488 0.13840830
v 0.31801224 -0.26059384 0.13840830
v 0.31801224 -0.26059384 0.11730331
v 0.31801224 -0.25730488 0.11730331
v 0.31801224 -0.25730488 0.12613827
v 0.31801224 -0.26059384 0.12613827
v 0.31801224 -0.26059384 0.10499131
v 0.31801224 -0.25730488 0.10499131
v 0.31801224 -0.25730488 0.11382626
v 0.31801224 -0.26059384 0.11382626
v 0.31801224 -0.26059384 0.09324775
v 0.31801224 -0.25730488 0.09324775
v 0.31801224 -0.25730488 0.10208271
v 0.31801224 -0.26059384 0.10208271
v 0.31801224 -0.26059384 0.08097772
v 0.31801224 -0.25730488 0.08097772
v 0.31801224 -0.25730488 0.08981268
v 0.31801224 -0.26059384 0.08981268
v 0.31801224 -0.26059384 0.06866571
v 0.31801224 -0.25730488 0.06866571
v 0.31801224 -0.25730488 0.07750067
v 0.31801224 -0.26059384 0.07750067
v 0.31801224 -0.26059384 0.05612448
v 0.31801224 -0.25730488 0.05612448
v 0.31801224 -0.25730488 0.06495943
v 0.31801224 -0.26059384 0.06495943
v 0.31801224 -0.26059384 0.04381247
v 0.31801224 -0.25730488 0.04381247
v 0.31801224 -0.25730488 0.05264742
v 0.31801224 -0.26059384 0.05264742
v 0.31801224 -0.26059384 0.03206891
v 0.31801224 -0.25730488 0.03206891
v 0.31801224 -0.25730488 0.04090387
v 0.31801224 -0.26059384 0.04090387
v 0.31801224 -0.26059384 0.01979888
v 0.31801224 -0.25730488 0.01979888
v 0.31801224 -0.25730488 0.02863384
v 0.31801224 -0.26059384 0.02863384
v 0.31801224 -0.26059384 0.00748687
v 0.31801224 -0.25730488 0.00748687
v 0.31801224 -0.25730488 0.01632183
v 0.31801224 -0.26059384 0.01632183
vn 0.00000000 -0.97410389 0.22610090
vn 0.00000000 -0.97410389 0.22610090
vn 0.00000000 -0.97410389 0.22610090
vn 0.00000000 -0.97410389 0.22610090
vn 0.00000000 -0.97410389 0.22610090
vn 0.00000000 -0.97410389 0.22610090
vn 0.00000000 -0.97410389 0.22610090
vn 0.00000000 -0.97410389 0.22610090
vn 0.00000000 -0.97410389 0.22610090
vn 0.02170051 -0.99302349 0.11590274
vn -0.17249445 -0.97816855 0.11589627
vn -0.17249445 -0.97816855 0.11589627
vn 0.02170051 -0.99302349 0.11590274
vn 0.21500259 -0.96971169 0.11590140
vn 0.21500259 -0.96971169 0.11590140
vn 0.40002088 -0.90914745 0.11590605
vn 0.40002088 -0.90914745 0.11590605
vn 0.56412487 -0.81653600 0.12260541
vn 0.56419305 -0.81648994 0.12259849
vn 0.71026871 -0.68986961 0.13999383
vn 0.71040630 -0.68970612 0.14010124
vn 0.83849315 -0.52589570 0.14269883
vn 0.83771360 -0.52710856 0.14280232
vn 0.92711585 -0.35380605 0.12360211
vn 0.92762307 -0.35250877 0.12350307
vn 0.97853925 -0.17250692 0.11270452
vn 0.97857653 -0.17249586 0.11239730
vn 0.99224649 0.01390065 0.12350579
vn 0.99220168 0.01530003 0.12370021
vn 0.96779279 0.20739846 0.14269894
vn 0.96747798 0.20879525 0.14279675
vn 0.90335089 0.40537796 0.14009238
vn 0.90347910 0.40509063 0.14009676
vn 0.80940825 0.57430586 0.12260125
vn 0.80935184 0.57436582 0.12269270
vn 0.68682291 0.71752393 0.11590387
vn 0.68682291 0.71752393 0.11590387
vn 0.53369739 0.83769590 0.11589943
vn 0.53369739 0.83769590 0.11589943
vn 0.36000841 0.92572162 0.11590271
vn 0.36000841 0.92572162 0.11590271
vn 0.17249445 0.97816855 0.11589627
vn 0.17249445 0.97816855 0.11589627
vn -0.02170051 0.99302349 0.11590274
vn -0.02170051 0.99302349 0.11590274
vn -0.21500259 0.96971169 0.11590140
vn -0.21500259 0.96971169 0.11590140
vn -0.40002088 0.90914745 0.11590605
vn -0.40002088 0.90914745 0.11590605
vn -0.56971827 0.81362609 0.11590372
vn -0.56971827 0.81362609 0.11590372
vn -0.71747465 0.68687573 0.11589590
vn -0.71747465 0.68687573 0.11589590
vn -0.83769590 0.53369739 0.11589943
vn -0.83769590 0.53369739 0.11589943
vn -0.92572162 0.36000841 0.11590271
vn -0.92572162 0.36000841 0.11590271
vn -0.97816855 0.17249445 0.11589627
vn -0.97816855 0.17249445 0.11589627
vn -0.99302349 -0.02170051 0.11590274
vn -0.99302349 -0.02170051 0.11590274
vn -0.96974043 -0.21470895 0.11620484
vn -0.96973087 -0.21480684 0.11610370
vn -0.94415835 -0.30828640 0.11629487
vn -0.94412216 -0.30850724 0.11600272
vn -0.53349725 -0.83779569 0.11609940
vn -0.53329086 -0.83788565 0.11639801
vn -0.61259519 -0.78179387 0.11629909
vn -0.61271268 -0.78171617 0.11620240
vn -0.36000841 -0.92572162 0.11590271
vn -0.36000841 -0.92572162 0.11590271
vn -0.31928186 -0.94054655 0.11589341
vn -0.49660288 -0.86020498 0.11590067
vn -0.49660288 -0.86020498 0.11590067
vn -0.31928186 -0.94054655 0.11589341
vn -0.12959611 -0.98477045 0.11589652
vn -0.12959611 -0.98477045 0.11589652
vn 0.06500205 -0.99113121 0.11590365
vn 0.06500205 -0.99113121 0.11590365
vn 0.25080753 -0.96022882 0.12270368
vn 0.25090431 -0.96021651 0.12260211
vn 0.43140617 -0.89121274 0.14010200
vn 0.43168875 -0.89107678 0.14009635
vn 0.60800356 -0.78100457 0.14270084
vn 0.60692103 -0.78182709 0.14280495
vn 0.75016928 -0.64957340 0.12369494
vn 0.75116021 -0.64846565 0.12349346
vn 0.86051214 -0.49680701 0.11270159
vn 0.86052184 -0.49681261 0.11260286
vn 0.93716824 -0.32628894 0.12349581
vn 0.93762088 -0.32490724 0.12370275
vn 0.98036536 -0.13609519 0.14269496
vn 0.98054110 -0.13470565 0.14280599
vn 0.98751567 0.07200114 0.14010222
vn 0.98753696 0.07170268 0.14010524
vn 0.95702699 0.26280741 0.12260346
vn 0.95700183 0.26290050 0.12260023
vn 0.89082586 0.43931275 0.11590336
vn 0.89082586 0.43931275 0.11590336
vn 0.78803232 0.60462480 0.11590475
vn 0.78798467 0.60468824 0.11589775
vn 0.65488787 0.74678616 0.11589785
vn 0.65488787 0.74678616 0.11589785
vn 0.49660288 0.86020498 0.11590067
vn 0.49660288 0.86020498 0.11590067
vn 0.31928186 0.94054655 0.11589341
vn 0.31928186 0.94054655 0.11589341
vn 0.12959611 0.98477045 0.11589652
vn 0.12959611 0.98477045 0.11589652
vn -0.06500205 0.99113121 0.11590365
vn -0.06500205 0.99113121 0.11590365
vn -0.25710237 0.95940884 0.11590107
vn -0.25710237 0.95940884 0.11590107
vn -0.43931275 0.89082586 0.11590336
vn -0.43931275 0.89082586 0.11590336
vn -0.60468824 0.78798467 0.11589775
vn -0.60468824 0.78798467 0.11589775
vn -0.74678616 0.65488787 0.11589785
vn -0.74678616 0.65488787 0.11589785
vn -0.86020498 0.49660288 0.11590067
vn -0.86020498 0.49660288 0.11590067
vn -0.94054655 0.31928186 0.11589341
vn -0.94055745 0.31928555 0.11579476
vn -0.98467057 0.12999611 0.11629652
vn -0.98470625 0.12990082 0.11610074
vn -0.99265969 0.03319865 0.11629528
vn -0.99267452 0.03309915 0.11619702
vn -0.78772983 -0.60492291 0.11640441
vn -0.78783375 -0.60482591 0.11620498
vn -0.84306910 -0.52508075 0.11629574
vn -0.84312317 -0.52501442 0.11620319
vn -0.65488787 -0.74678616 0.11589785
vn -0.65488787 -0.74678616 0.11589785
vn -0.31928186 -0.94054655 0.11589341
vn -0.49660288 -0.86020498 0.11590067
vn -0.49660288 -0.86020498 0.11590067
vn -0.31928186 -0.94054655 0.11589341
vn -0.12959611 -0.98477045 0.11589652
vn -0.12959611 -0.98477045 0.11589652
vn 0.06500205 -0.99113121 0.11590365
vn 0.06500205 -0.99113121 0.11590365
vn 0.25081060 -0.96024060 0.12260518
vn 0.25090124 -0.96020473 0.12270060
vn 0.43149963 -0.89119924 0.13989988
vn 0.43168875 -0.89107678 0.14009635
vn 0.60800356 -0.78100457 0.14270084
vn 0.60692103 -0.78182709 0.14280495
vn 0.75017856 -0.64958144 0.12359647
vn 0.75116021 -0.64846565 0.12349346
vn 0.86055087 -0.49682937 0.11230664
vn 0.86049273 -0.49679580 0.11289905
vn 0.93716824 -0.32628894 0.12349581
vn 0.93763248 -0.32491125 0.12360428
vn 0.98036536 -0.13609519 0.14269496
vn 0.98054110 -0.13470565 0.14280599
vn 0.98751567 0.07200114 0.14010222
vn 0.98753696 0.07170268 0.14010524
vn 0.95699010 0.26289728 0.12269873
vn 0.95699010 0.26289728 0.12269873
vn 0.89082586 0.43931275 0.11590336
vn 0.89082586 0.43931275 0.11590336
vn 0.78798467 0.60468824 0.11589775
vn 0.78798467 0.60468824 0.11589775
vn 0.65488787 0.74678616 0.11589785
vn 0.65488787 0.74678616 0.11589785
vn 0.49660288 0.86020498 0.11590067
vn 0.49660288 0.86020498 0.11590067
vn 0.31928186 0.94054655 0.11589341
vn 0.31928186 0.94054655 0.11589341
vn 0.12959611 0.98477045 0.11589652
vn 0.12959611 0.98477045 0.11589652
vn -0.06500205 0.99113121 0.11590365
vn -0.06500205 0.99113121 0.11590365
vn -0.25710237 0.95940884 0.11590107
vn -0.25710237 0.95940884 0.11590107
vn -0.43931275 0.89082586 0.11590336
vn -0.43931275 0.89082586 0.11590336
vn -0.60468824 0.78798467 0.11589775
vn -0.60468824 0.78798467 0.11589775
vn -0.74678616 0.65488787 0.11589785
vn -0.74678616 0.65488787 0.11589785
vn -0.86020498 0.49660288 0.11590067
vn -0.86020498 0.49660288 0.11590067
vn -0.94054655 0.31928186 0.11589341
vn -0.94054655 0.31928186 0.11589341
vn -0.98475769 0.12969443 0.11589502
vn -0.98470625 0.12990082 0.11610074
vn -0.99265969 0.03319865 0.11629528
vn -0.99268605 0.03309953 0.11609837
vn -0.78788083 -0.60478529 0.11609718
vn -0.78798467 -0.60468824 0.11589775
vn -0.84306910 -0.52508075 0.11629574
vn -0.84317165 -0.52498235 0.11599610
vn -0.65488787 -0.74678616 0.11589785
vn -0.65488787 -0.74678616 0.11589785
vn -0.31928186 -0.94054655 0.11589341
vn -0.49660288 -0.86020498 0.11590067
vn -0.49660288 -0.86020498 0.11590067
vn -0.31931189 -0.94053501 0.11590431
vn -0.12959611 -0.98477045 0.11589652
vn -0.12959611 -0.98477045 0.11589652
vn 0.06500205 -0.99113121 0.11590365
vn 0.06500205 -0.99113121 0.11590365
vn 0.25081060 -0.96024060 0.12260518
vn 0.25090431 -0.96021651 0.12260211
vn 0.43149359 -0.89118677 0.13999792
vn 0.43168875 -0.89107678 0.14009635
vn 0.60800356 -0.78100457 0.14270084
vn 0.60692103 -0.78182709 0.14280495
vn 0.75017856 -0.64958144 0.12359647
vn 0.75116021 -0.64846565 0.12349346
vn 0.86051214 -0.49680701 0.11270159
vn 0.86052184 -0.49681261 0.11260286
vn 0.93716824 -0.32628894 0.12349581
vn 0.93763248 -0.32491125 0.12360428
vn 0.98036536 -0.13609519 0.14269496
vn 0.98054110 -0.13470565 0.14280599
vn 0.98751567 0.07200114 0.14010222
vn 0.98753696 0.07170268 0.14010524
vn 0.95699010 0.26289728 0.12269873
vn 0.95699010 0.26289728 0.12269873
vn 0.89082586 0.43931275 0.11590336
vn 0.89082586 0.43931275 0.11590336
vn 0.78798467 0.60468824 0.11589775
vn 0.78798467 0.60468824 0.11589775
vn 0.65488787 0.74678616 0.11589785
vn 0.65488787 0.74678616 0.11589785
vn 0.49660288 0.86020498 0.11590067
vn 0.49660863 0.86021495 0.11580201
vn 0.31928186 0.94054655 0.11589341
vn 0.31928186 0.94054655 0.11589341
vn 0.12959611 0.98477045 0.11589652
vn 0.12959611 0.98477045 0.11589652
vn -0.06500205 0.99113121 0.11590365
vn -0.06500205 0.99113121 0.11590365
vn -0.25710237 0.95940884 0.11590107
vn -0.25710237 0.95940884 0.11590107
vn -0.43931275 0.89082586 0.11590336
vn -0.43931275 0.89082586 0.11590336
vn -0.60468824 0.78798467 0.11589775
vn -0.60468824 0.78798467 0.11589775
vn -0.74678616 0.65488787 0.11589785
vn -0.74678616 0.65488787 0.11589785
vn -0.86020498 0.49660288 0.11590067
vn -0.86020498 0.49660288 0.11590067
vn -0.94055745 0.31928555 0.11579476
vn -0.94054655 0.31928186 0.11589341
vn -0.98475769 0.12969443 0.11589502
vn -0.98470625 0.12990082 0.11610074
vn -0.99265969 0.03319865 0.11629528
vn -0.99270085 0.03300003 0.11600010
vn -0.78788083 -0.60478529 0.11609718
vn -0.78777694 -0.60488230 0.11629660
vn -0.84306910 -0.52508075 0.11629574
vn -0.84304017 -0.52512502 0.11630554
vn -0.65488787 -0.74678616 0.11589785
vn -0.65488787 -0.74678616 0.11589785
vn -0.31928186 -0.94054655 0.11589341
vn -0.49660288 -0.86020498 0.11590067
vn -0.49660288 -0.86020498 0.11590067
vn -0.31928186 -0.94054655 0.11589341
vn -0.12959611 -0.98477045 0.11589652
vn -0.12959611 -0.98477045 0.11589652
vn 0.06500205 -0.99113121 0.11590365
vn 0.06500205 -0.99113121 0.11590365
vn 0.25081060 -0.96024060 0.12260518
vn 0.25090124 -0.96020473 0.12270060
vn 0.43158101 -0.89116079 0.13989384
vn 0.43168875 -0.89107678 0.14009635
vn 0.60800356 -0.78100457 0.14270084
vn 0.60692103 -0.78182709 0.14280495
vn 0.75021801 -0.64951560 0.12370297
vn 0.75116021 -0.64846565 0.12349346
vn 0.86051214 -0.49680701 0.11270159
vn 0.86054120 -0.49682379 0.11240538
vn 0.93716824 -0.32628894 0.12349581
vn 0.93762088 -0.32490724 0.12370275
vn 0.98036536 -0.13609519 0.14269496
vn 0.98054110 -0.13470565 0.14280599
vn 0.98751567 0.07200114 0.14010222
vn 0.98753696 0.07170268 0.14010524
vn 0.95702699 0.26280741 0.12260346
vn 0.95699010 0.26289728 0.12269873
vn 0.89082586 0.43931275 0.11590336
vn 0.89082586 0.43931275 0.11590336
vn 0.78798467 0.60468824 0.11589775
vn 0.78798467 0.60468824 0.11589775
vn 0.65488787 0.74678616 0.11589785
vn 0.65488787 0.74678616 0.11589785
vn 0.49660288 0.86020498 0.11590067
vn 0.49660288 0.86020498 0.11590067
vn 0.31928186 0.94054655 0.11589341
vn 0.31928186 0.94054655 0.11589341
vn 0.12959611 0.98477045 0.11589652
vn 0.12959611 0.98477045 0.11589652
vn -0.06500205 0.99113121 0.11590365
vn -0.06500205 0.99113121 0.11590365
vn -0.25710237 0.95940884 0.11590107
vn -0.25710237 0.95940884 0.11590107
vn -0.43931275 0.89082586 0.11590336
vn -0.43931275 0.89082586 0.11590336
vn -0.60468824 0.78798467 0.11589775
vn -0.60468824 0.78798467 0.11589775
vn -0.74678616 0.65488787 0.11589785
vn -0.74678616 0.65488787 0.11589785
vn -0.86020498 0.49660288 0.11590067
vn -0.86020498 0.49660288 0.11590067
vn -0.94054655 0.31928186 0.11589341
vn -0.94054655 0.31928186 0.11589341
vn -0.98475769 0.12969443 0.11589502
vn -0.98470625 0.12990082 0.11610074
vn -0.99265969 0.03319865 0.11629528
vn -0.99270085 0.03300003 0.11600010
vn -0.78788083 -0.60478529 0.11609718
vn -0.78798467 -0.60468824 0.11589775
vn -0.84317165 -0.52498235 0.11599610
vn -0.84317165 -0.52498235 0.11599610
vn -0.65488787 -0.74678616 0.11589785
vn -0.65488787 -0.74678616 0.11589785
vn 0.00000000 -0.97410389 0.22610090
vn 0.00000000 -0.97410389 0.22610090
vn 0.00000000 -0.97410389 0.22610090
vn 0.00000000 -0.97410389 0.22610090
vn 0.00000000 -0.97410389 0.22610090
vn 0.00000000 -0.97410389 0.22610090
vn 0.00000000 -0.97410389 0.22610090
vn 0.00000000 -0.97410389 0.22610090
vn 0.00000000 -0.97410389 0.22610090
vn 0.00000000 -0.97410389 0.22610090
vn 0.00000000 -0.97410389 0.22610090
vn 0.00000000 -0.97410389 0.22610090
vn 0.00000000 -0.97433386 0.22510782
vn 0.00000000 -0.97433386 0.22510782
vn 0.00000000 -0.97433386 0.22510782
vn 0.00000000 -0.97433386 0.22510782
vn 0.00000000 -0.99619089 0.08719920
vn 0.00000000 -0.99619089 0.08719920
vn 0.00000000 -0.99619089 0.08719920
vn 0.00000000 -0.99619089 0.08719920
vn 0.00000000 -0.99619089 0.08719920
vn 0.00000000 -0.99619089 0.08719920
vn 0.00000000 -0.99619089 0.08719920
vn 0.00000000 -0.99619089 0.08719920
vn 0.00000000 -0.99619089 0.08719920
vn 0.00000000 -0.99619089 0.08719920
vn 0.00000000 -0.99619089 0.08719920
vn 0.00000000 -0.99619089 0.08719920
vn 0.00000000 -0.99619089 0.08719920
vn 0.00000000 -0.99619089 0.08719920
vn 0.00000000 -0.99619089 0.08719920
vn 0.00000000 -0.99619089 0.08719920
vn 0.00000000 -0.99619089 0.08719920
vn 0.00000000 -0.99619089 0.08719920
vn 0.00000000 -0.99619089 0.08719920
vn 0.00000000 -0.99619089 0.08719920
vn -1.00000000 0.00000000 0.00000000
vn -1.00000000 0.00000000 0.00000000
vn -1.00000000 0.00000000 0.00000000
vn -1.00000000 0.00000000 0.00000000
vn -1.00000000 0.00000000 0.00000000
vn -1.00000000 0.00000000 0.00000000
vn -1.00000000 0.00000000 0.00000000
vn -1.00000000 0.00000000 0.00000000
vn -1.00000000 0.00000000 0.00000000
vn -1.00000000 0.00000000 0.00000000
vn -1.00000000 0.00000000 0.00000000
vn -1.00000000 0.00000000 0.00000000
vn -1.00000000 0.00000000 0.00000000
vn -1.00000000 0.00000000 0.00000000
vn -1.00000000 0.00000000 0.00000000
vn -1.00000000 0.00000000 0.00000000
vn -1.00000000 0.00000000 0.00000000
vn -1.00000000 0.00000000 0.00000000
vn -1.00000000 0.00000000 0.00000000
vn -1.00000000 0.00000000 0.00000000
vn -1.00000000 0.00000000 0.00000000
vn -1.00000000 0.00000000 0.00000000
vn -1.00000000 0.00000000 0.00000000
vn -1.00000000 0.00000000 0.00000000
vn -1.00000000 0.00000000 0.00000000
vn -1.00000000 0.00000000 0.00000000
vn -1.00000000 0.00000000 0.00000000
vn -1.00000000 0.00000000 0.00000000
vn -1.00000000 0.00000000 0.00000000
vn -1.00000000 0.00000000 0.00000000
vn -1.00000000 0.00000000 0.00000000
vn -1.00000000 0.00000000 0.00000000
vn -1.00000000 0.00000000 0.00000000
vn -1.00000000 0.00000000 0.00000000
vn -1.00000000 0.00000000 0.00000000
vn -1.00000000 0.00000000 0.00000000
vn -1.00000000 0.00000000 0.00000000
vn -1.00000000 0.00000000 0.00000000
vn -1.00000000 0.00000000 0.00000000
vn -1.00000000 0.00000000 0.00000000
vn -1.00000000 0.00000000 0.00000000
vn -1.00000000 0.00000000 0.00000000
vn -1.00000000 0.00000000 0.00000000
vn -1.00000000 0.00000000 0.00000000
vn 1.00000000 0.00000000 0.00000000
vn 1.00000000 0.00000000 0.00000000
vn 1.00000000 0.00000000 0.00000000
vn 1.00000000 0.00000000 0.00000000
vn 1.00000000 0.00000000 0.00000000
vn 1.00000000 0.00000000 0.00000000
vn 1.00000000 0.00000000 0.00000000
vn 1.00000000 0.00000000 0.00000000
vn 1.00000000 0.00000000 0.00000000
vn 1.00000000 0.00000000 0.00000000
vn 1.00000000 0.00000000 0.00000000
vn 1.00000000 0.00000000 0.00000000
vn 1.00000000 0.00000000 0.00000000
vn 1.00000000 0.00000000 0.00000000
vn 1.00000000 0.00000000 0.00000000
vn 1.00000000 0.00000000 0.00000000
vn 1.00000000 0.00000000 0.00000000
vn 1.00000000 0.00000000 0.00000000
vn 1.00000000 0.00000000 0.00000000
vn 1.00000000 0.00000000 0.00000000
vn 1.00000000 0.00000000 0.00000000
vn 1.00000000 0.00000000 0.00000000
vn 1.00000000 0.00000000 0.00000000
vn 1.00000000 0.00000000 0.00000000
vn 1.00000000 0.00000000 0.00000000
vn 1.00000000 0.00000000 0.00000000
vn 1.00000000 0.00000000 0.00000000
vn 1.00000000 0.00000000 0.00000000
vn 1.00000000 0.00000000 0.00000000
vn 1.00000000 0.00000000 0.00000000
vn 1.00000000 0.00000000 0.00000000
vn 1.00000000 0.00000000 0.00000000
vn 1.00000000 0.00000000 0.00000000
vn 1.00000000 0.00000000 0.00000000
vn 1.00000000 0.00000000 0.00000000
vn 1.00000000 0.00000000 0.00000000
vn 1.00000000 0.00000000 0.00000000
vn 1.00000000 0.00000000 0.00000000
vn 1.00000000 0.00000000 0.00000000
vn 1.00000000 0.00000000 0.00000000
vn 1.00000000 0.00000000 0.00000000
vn 1.00000000 0.00000000 0.00000000
vn 1.00000000 0.00000000 0.00000000
vn 1.00000000 0.00000000 0.00000000
vt 0.00098800 0.63723300
vt 0.00098800 0.94870400
vt 0.50000000 0.79296900
vt 0.05112300 0.99883900
vt 0.94887700 0.99883900
vt 0.99901200 0.94870400
vt 0.99901200 0.63723300
vt 0.94887700 0.58709800
vt 0.05112300 0.58709800
vt 0.26371000 0.51888100
vt 0.24216100 0.51888100
vt 0.24216100 0.53053000
vt 0.26371000 0.53053000
vt 0.28524400 0.51888100
vt 0.28524400 0.53053000
vt 0.30679100 0.51888100
vt 0.30679100 0.53053000
vt 0.32833400 0.51888100
vt 0.32833400 0.53053000
vt 0.34988200 0.51888100
vt 0.34988200 0.53053000
vt 0.37146300 0.51888100
vt 0.37146300 0.53053000
vt 0.39298400 0.53053000
vt 0.39298400 0.51888100
vt 0.41448500 0.53053000
vt 0.41448500 0.51888100
vt 0.43607800 0.51888100
vt 0.43607800 0.53053000
vt 0.45771800 0.51888100
vt 0.45771800 0.53053000
vt 0.47926700 0.51888100
vt 0.47926700 0.53053000
vt 0.50078800 0.53053000
vt 0.50078800 0.51888100
vt 0.52235300 0.51888100
vt 0.52235300 0.53053000
vt 0.54387800 0.51888100
vt 0.54387800 0.53053000
vt 0.56540700 0.51888100
vt 0.56540700 0.53053000
vt 0.58693700 0.51888100
vt 0.58693700 0.53053000
vt 0.60846900 0.51888100
vt 0.60846900 0.53053000
vt 0.63000100 0.51888100
vt 0.63000100 0.53053000
vt 0.65153500 0.51888100
vt 0.65153500 0.53053000
vt 0.67307000 0.51888100
vt 0.67307000 0.53053000
vt 0.69460400 0.51888100
vt 0.69460400 0.53053000
vt 0.71613900 0.51888100
vt 0.71613900 0.53053000
vt 0.73767400 0.51888100
vt 0.73767400 0.53053000
vt 0.75917100 0.51888100
vt 0.75917100 0.53053000
vt 0.78066700 0.51888100
vt 0.78066700 0.53053000
vt 0.80219500 0.51888100
vt 0.80219500 0.53053000
vt 0.82340700 0.51888100
vt 0.82340700 0.53053000
vt 0.19931700 0.53053000
vt 0.19931700 0.51888100
vt 0.17853700 0.51888100
vt 0.17853700 0.53053000
vt 0.22061500 0.51888100
vt 0.22061500 0.53053000
vt 0.29826100 0.51972900
vt 0.27985100 0.51972900
vt 0.27985100 0.52968200
vt 0.29826100 0.52968200
vt 0.31665900 0.51972900
vt 0.31665900 0.52968200
vt 0.33506800 0.51972900
vt 0.33506800 0.52968200
vt 0.35347400 0.51972900
vt 0.35347400 0.52968200
vt 0.37188500 0.51972900
vt 0.37188500 0.52968200
vt 0.39032300 0.51972900
vt 0.39032300 0.52968200
vt 0.40871000 0.52968200
vt 0.40871000 0.51972900
vt 0.42708000 0.52968200
vt 0.42708000 0.51972900
vt 0.44552800 0.51972900
vt 0.44552800 0.52968200
vt 0.46401700 0.51972900
vt 0.46401700 0.52968200
vt 0.48242800 0.51972900
vt 0.48242800 0.52968200
vt 0.50081500 0.52968200
vt 0.50081500 0.51972900
vt 0.51923900 0.51972900
vt 0.51923900 0.52968200
vt 0.53763000 0.51972900
vt 0.53763000 0.52968200
vt 0.55602400 0.51972900
vt 0.55602400 0.52968200
vt 0.57441900 0.51972900
vt 0.57441900 0.52968200
vt 0.59281500 0.51972900
vt 0.59281500 0.52968200
vt 0.61121200 0.51972900
vt 0.61121200 0.52968200
vt 0.62960900 0.51972900
vt 0.62960900 0.52968200
vt 0.64800800 0.51972900
vt 0.64800800 0.52968200
vt 0.66640700 0.51972900
vt 0.66640700 0.52968200
vt 0.68480500 0.51972900
vt 0.68480500 0.52968200
vt 0.70320400 0.51972900
vt 0.70320400 0.52968200
vt 0.72157100 0.51972900
vt 0.72157100 0.52968200
vt 0.73993600 0.51972900
vt 0.73993600 0.52968200
vt 0.75832900 0.51972900
vt 0.75832900 0.52968200
vt 0.77645200 0.51972900
vt 0.77645200 0.52968200
vt 0.24324600 0.52968200
vt 0.24324600 0.51972900
vt 0.22549200 0.51972900
vt 0.22549200 0.52968200
vt 0.26144200 0.51972900
vt 0.26144200 0.52968200
vt 0.13471000 0.51571500
vt 0.10144600 0.51571500
vt 0.10144600 0.53369700
vt 0.13471000 0.53369700
vt 0.16795200 0.51571500
vt 0.16795200 0.53369700
vt 0.20121400 0.51571500
vt 0.20121400 0.53369700
vt 0.23447000 0.51571500
vt 0.23447000 0.53369700
vt 0.26773400 0.51571500
vt 0.26773400 0.53369700
vt 0.30104900 0.51571500
vt 0.30104900 0.53369700
vt 0.33427100 0.53369700
vt 0.33427100 0.51571500
vt 0.36746200 0.53369700
vt 0.36746200 0.51571500
vt 0.40079400 0.51571500
vt 0.40079400 0.53369700
vt 0.43420100 0.51571500
vt 0.43420100 0.53369700
vt 0.46746500 0.51571500
vt 0.46746500 0.53369700
vt 0.50068900 0.53369700
vt 0.50068900 0.51571500
vt 0.53397800 0.51571500
vt 0.53397800 0.53369700
vt 0.56720600 0.51571500
vt 0.56720600 0.53369700
vt 0.60044100 0.51571500
vt 0.60044100 0.53369700
vt 0.63367700 0.51571500
vt 0.63367700 0.53369700
vt 0.66691500 0.51571500
vt 0.66691500 0.53369700
vt 0.70015500 0.51571500
vt 0.70015500 0.53369700
vt 0.73339600 0.51571500
vt 0.73339600 0.53369700
vt 0.76663900 0.51571500
vt 0.76663900 0.53369700
vt 0.79988200 0.51571500
vt 0.79988200 0.53369700
vt 0.83312600 0.51571500
vt 0.83312600 0.53369700
vt 0.86637000 0.51571500
vt 0.86637000 0.53369700
vt 0.89955500 0.51571500
vt 0.89955500 0.53369700
vt 0.93273700 0.51571500
vt 0.93273700 0.53369700
vt 0.96597000 0.51571500
vt 0.96597000 0.53369700
vt 0.99871500 0.51571500
vt 0.99871500 0.53369700
vt 0.03530700 0.53369700
vt 0.03530700 0.51571400
vt 0.00322900 0.51571400
vt 0.00322900 0.53369700
vt 0.06818400 0.51571500
vt 0.06818400 0.53369700
vt 0.26370900 0.51888100
vt 0.24216100 0.51888100
vt 0.24216100 0.53053000
vt 0.26370900 0.53053000
vt 0.28524300 0.51888100
vt 0.28524300 0.53053000
vt 0.30679000 0.51888100
vt 0.30679000 0.53053000
vt 0.32833300 0.51888100
vt 0.32833300 0.53053000
vt 0.34988200 0.51888100
vt 0.34988200 0.53053000
vt 0.37146300 0.51888100
vt 0.37146300 0.53053000
vt 0.39298400 0.53053000
vt 0.39298400 0.51888100
vt 0.41448500 0.53053000
vt 0.41448500 0.51888100
vt 0.43607800 0.51888100
vt 0.43607800 0.53053000
vt 0.45771800 0.51888100
vt 0.45771800 0.53053000
vt 0.47926700 0.51888100
vt 0.47926700 0.53053000
vt 0.50078900 0.53053000
vt 0.50078900 0.51888100
vt 0.52235300 0.51888100
vt 0.52235300 0.53053000
vt 0.54387800 0.51888100
vt 0.54387800 0.53053000
vt 0.56540700 0.51888100
vt 0.56540700 0.53053000
vt 0.58693800 0.51888100
vt 0.58693800 0.53053000
vt 0.60846900 0.51888100
vt 0.60846900 0.53053000
vt 0.63000200 0.51888100
vt 0.63000200 0.53053000
vt 0.65153500 0.51888100
vt 0.65153500 0.53053000
vt 0.67307000 0.51888100
vt 0.67307000 0.53053000
vt 0.69460500 0.51888100
vt 0.69460500 0.53053000
vt 0.71614000 0.51888100
vt 0.71614000 0.53053000
vt 0.73767500 0.51888100
vt 0.73767500 0.53053000
vt 0.75917200 0.51888100
vt 0.75917200 0.53053000
vt 0.78066800 0.51888100
vt 0.78066800 0.53053000
vt 0.80219600 0.51888100
vt 0.80219600 0.53053000
vt 0.82340800 0.51888100
vt 0.82340800 0.53053000
vt 0.19931700 0.53053000
vt 0.19931700 0.51888100
vt 0.17853600 0.51888100
vt 0.17853600 0.53053000
vt 0.22061400 0.51888100
vt 0.22061400 0.53053000
vt 0.22685200 0.51797600
vt 0.20195600 0.51797600
vt 0.20195600 0.53143500
vt 0.22685200 0.53143500
vt 0.25173100 0.51797600
vt 0.25173100 0.53143500
vt 0.27662500 0.51797600
vt 0.27662500 0.53143500
vt 0.30151500 0.51797600
vt 0.30151500 0.53143500
vt 0.32641100 0.51797600
vt 0.32641100 0.53143500
vt 0.35134400 0.51797600
vt 0.35134400 0.53143500
vt 0.37620900 0.53143500
vt 0.37620900 0.51797600
vt 0.40105000 0.53143500
vt 0.40105000 0.51797700
vt 0.42599600 0.51797700
vt 0.42599600 0.53143500
vt 0.45099800 0.51797700
vt 0.45099800 0.53143500
vt 0.47589500 0.51797700
vt 0.47589500 0.53143500
vt 0.50076000 0.53143500
vt 0.50076000 0.51797700
vt 0.52567400 0.51797700
vt 0.52567400 0.53143500
vt 0.55054300 0.51797700
vt 0.55054300 0.53143500
vt 0.57541700 0.51797700
vt 0.57541700 0.53143500
vt 0.60029200 0.51797700
vt 0.60029200 0.53143500
vt 0.62516800 0.51797700
vt 0.62516800 0.53143500
vt 0.65004600 0.51797700
vt 0.65004600 0.53143500
vt 0.67492500 0.51797700
vt 0.67492500 0.53143500
vt 0.69980400 0.51797700
vt 0.69980400 0.53143500
vt 0.72468400 0.51797700
vt 0.72468400 0.53143500
vt 0.74956500 0.51797700
vt 0.74956500 0.53143500
vt 0.77444600 0.51797700
vt 0.77444600 0.53143500
vt 0.79928200 0.51797700
vt 0.79928200 0.53143500
vt 0.82411700 0.51797700
vt 0.82411700 0.53143500
vt 0.84898900 0.51797700
vt 0.84898900 0.53143500
vt 0.87349600 0.51797700
vt 0.87349600 0.53143500
vt 0.15245600 0.53143500
vt 0.15245600 0.51797600
vt 0.12844800 0.51797600
vt 0.12844800 0.53143500
vt 0.17706200 0.51797600
vt 0.17706200 0.53143500
vt 0.02918900 0.59023200
vt 0.01352200 0.59963200
vt 0.00412100 0.61529900
vt 0.00412100 0.97063900
vt 0.01352200 0.98630600
vt 0.02918900 0.99570600
vt 0.97081100 0.99570600
vt 0.98647800 0.98630600
vt 0.99587900 0.97063900
vt 0.99587900 0.61529900
vt 0.98647800 0.59963200
vt 0.97081100 0.59023200
vt 0.03528600 0.50342900
vt 0.79448600 0.50342900
vt 0.79448600 0.31357800
vt 0.03528600 0.31357800
vt 0.43634300 0.02565700
vt 0.43634300 0.07376300
vt 0.49582600 0.07376300
vt 0.49582600 0.02565700
vt 0.66865300 0.02565700
vt 0.66865300 0.08169500
vt 0.73264800 0.08169500
vt 0.73264800 0.02565700
vt 0.20220100 0.02565700
vt 0.20220100 0.07653600
vt 0.32866800 0.07653600
vt 0.32866800 0.02565700
vt 0.11334100 0.02565700
vt 0.11334100 0.07578000
vt 0.17420100 0.07578000
vt 0.17420100 0.02565700
vt 0.76557600 0.02565700
vt 0.76557600 0.07635700
vt 0.89097400 0.07635700
vt 0.89097400 0.02565700
vt 0.02976600 0.24820500
vt 0.02177000 0.24820500
vt 0.02177000 0.26968200
vt 0.02976600 0.26968200
vt 0.02976600 0.24820600
vt 0.02177000 0.24820600
vt 0.02177000 0.26968300
vt 0.02976600 0.26968300
vt 0.02976600 0.24820600
vt 0.02177000 0.24820600
vt 0.02177000 0.26968300
vt 0.02976600 0.26968300
vt 0.02976600 0.24820500
vt 0.02177000 0.24820500
vt 0.02177000 0.26968200
vt 0.02976600 0.26968200
vt 0.02976600 0.24820600
vt 0.02177000 0.24820600
vt 0.02177000 0.26968300
vt 0.02976600 0.26968300
vt 0.02976600 0.24820600
vt 0.02177000 0.24820600
vt 0.02177000 0.26968300
vt 0.02976600 0.26968300
vt 0.02976600 0.24820600
vt 0.02177000 0.24820600
vt 0.02177000 0.26968300
vt 0.02976600 0.26968300
vt 0.02976600 0.24820600
vt 0.02177000 0.24820600
vt 0.02177000 0.26968300
vt 0.02976600 0.26968300
vt 0.02976600 0.24820500
vt 0.02177000 0.24820500
vt 0.02177000 0.26968200
vt 0.02976600 0.26968200
vt 0.02976600 0.24820500
vt 0.02177000 0.24820500
vt 0.02177000 0.26968200
vt 0.02976600 0.26968200
vt 0.02976600 0.24820500
vt 0.02177000 0.24820500
vt 0.02177000 0.26968200
vt 0.02976600 0.26968200
vt 0.02976600 0.24820500
vt 0.02177000 0.24820500
vt 0.02177000 0.26968200
vt 0.02976600 0.26968200
vt 0.02976600 0.24820600
vt 0.02177000 0.24820600
vt 0.02177000 0.26968300
vt 0.02976600 0.26968300
vt 0.02976600 0.24820600
vt 0.02177000 0.24820600
vt 0.02177000 0.26968300
vt 0.02976600 0.26968300
vt 0.02976600 0.24820500
vt 0.02177000 0.24820500
vt 0.02177000 0.26968200
vt 0.02976600 0.26968200
vt 0.02976600 0.24820600
vt 0.02177000 0.24820600
vt 0.02177000 0.26968300
vt 0.02976600 0.26968300
vt 0.02976600 0.24820600
vt 0.02177000 0.24820600
vt 0.02177000 0.26968300
vt 0.02976600 0.26968300
vt 0.02976600 0.24820600
vt 0.02177000 0.24820600
vt 0.02177000 0.26968300
vt 0.02976600 0.26968300
vt 0.02976600 0.24820600
vt 0.02177000 0.24820600
vt 0.02177000 0.26968300
vt 0.02976600 0.26968300
vt 0.02976600 0.24820500
vt 0.02177000 0.24820500
vt 0.02177000 0.26968200
vt 0.02976600 0.26968200
vt 0.02976600 0.24820500
vt 0.02177000 0.24820500
vt 0.02177000 0.26968200
vt 0.02976600 0.26968200
vt 0.02976600 0.24820500
vt 0.02177000 0.24820500
vt 0.02177000 0.26968200
vt 0.02976600 0.26968200
f 1/1/1 2/2/2 3/3/3
f 4/4/4 5/5/5 3/3/3
f 6/6/6 7/7/7 3/3/3
f 8/8/8 9/9/9 3/3/3
f 10/10/10 11/11/11 12/12/12
f 10/10/10 12/12/12 13/13/13
f 14/14/14 10/10/10 13/13/13
f 14/14/14 13/13/13 15/15/15
f 16/16/16 14/14/14 15/15/15
f 16/16/16 15/15/15 17/17/17
f 18/18/18 16/16/16 17/17/17
f 18/18/18 17/17/17 19/19/19
f 20/20/20 18/18/18 19/19/19
f 20/20/20 19/19/19 21/21/21
f 22/22/22 20/20/20 21/21/21
f 22/22/22 21/21/21 23/23/23
f 24/24/24 25/25/25 22/22/22
f 24/24/24 22/22/22 23/23/23
f 26/26/26 27/27/27 25/25/25
f 26/26/26 25/25/25 24/24/24
f 28/28/28 27/27/27 26/26/26
f 28/28/28 26/26/26 29/29/29
f 30/30/30 28/28/28 29/29/29
f 30/30/30 29/29/29 31/31/31
f 32/32/32 30/30/30 31/31/31
f 32/32/32 31/31/31 33/33/33
f 34/34/34 35/35/35 32/32/32
f 34/34/34 32/32/32 33/33/33
f 36/36/36 35/35/35 34/34/34
f 36/36/36 34/34/34 37/37/37
f 38/38/38 36/36/36 37/37/37
f 38/38/38 37/37/37 39/39/39
f 40/40/40 38/38/38 39/39/39
f 40/40/40 39/39/39 41/41/41
f 42/42/42 40/40/40 41/41/41
f 42/42/42 41/41/41 43/43/43
f 44/44/44 42/42/42 43/43/43
f 44/44/44 43/43/43 45/45/45
f 46/46/46 44/44/44 45/45/45
f 46/46/46 45/45/45 47/47/47
f 48/48/48 46/46/46 47/47/47
f 48/48/48 47/47/47 49/49/49
f 50/50/50 48/48/48 49/49/49
f 50/50/50 49/49/49 51/51/51
f 52/52/52 50/50/50 51/51/51
f 52/52/52 51/51/51 53/53/53
f 54/54/54 52/52/52 53/53/53
f 54/54/54 53/53/53 55/55/55
f 56/56/56 54/54/54 55/55/55
f 56/56/56 55/55/55 57/57/57
f 58/58/58 56/56/56 57/57/57
f 58/58/58 57/57/57 59/59/59
f 60/60/60 58/58/58 59/59/59
f 60/60/60 59/59/59 61/61/61
f 62/62/62 60/60/60 61/61/61
f 62/62/62 61/61/61 63/63/63
f 64/64/64 62/62/62 63/63/63
f 64/64/64 63/63/63 65/65/65
f 66/66/66 67/67/67 68/68/68
f 66/66/66 68/68/68 69/69/69
f 70/70/70 67/67/67 66/66/66
f 70/70/70 66/66/66 71/71/71
f 11/11/11 70/70/70 71/71/71
f 11/11/11 71/71/71 12/12/12
f 72/72/72 73/73/73 74/74/74
f 72/72/72 74/74/74 75/75/75
f 76/76/76 72/72/72 75/75/75
f 76/76/76 75/75/75 77/77/77
f 78/78/78 76/76/76 77/77/77
f 78/78/78 77/77/77 79/79/79
f 80/80/80 78/78/78 79/79/79
f 80/80/80 79/79/79 81/81/81
f 82/82/82 80/80/80 81/81/81
f 82/82/82 81/81/81 83/83/83
f 84/84/84 82/82/82 83/83/83
f 84/84/84 83/83/83 85/85/85
f 86/86/86 87/87/87 84/84/84
f 86/86/86 84/84/84 85/85/85
f 88/88/88 89/89/89 87/87/87
f 88/88/88 87/87/87 86/86/86
f 90/90/90 89/89/89 88/88/88
f 90/90/90 88/88/88 91/91/91
f 92/92/92 90/90/90 91/91/91
f 92/92/92 91/91/91 93/93/93
f 94/94/94 92/92/92 93/93/93
f 94/94/94 93/93/93 95/95/95
f 96/96/96 97/97/97 94/94/94
f 96/96/96 94/94/94 95/95/95
f 98/98/98 97/97/97 96/96/96
f 98/98/98 96/96/96 99/99/99
f 100/100/100 98/98/98 99/99/99
f 100/100/100 99/99/99 101/101/101
f 102/102/102 100/100/100 101/101/101
f 102/102/102 101/101/101 103/103/103
f 104/104/104 102/102/102 103/103/103
f 104/104/104 103/103/103 105/105/105
f 106/106/106 104/104/104 105/105/105
f 106/106/106 105/105/105 107/107/107
f 108/108/108 106/106/106 107/107/107
f 108/108/108 107/107/107 109/109/109
f 110/110/110 108/108/108 109/109/109
f 110/110/110 109/109/109 111/111/111
f 112/112/112 110/110/110 111/111/111
f 112/112/112 111/111/111 113/113/113
f 114/114/114 112/112/112 113/113/113
f 114/114/114 113/113/113 115/115/115
f 116/116/116 114/114/114 115/115/115
f 116/116/116 115/115/115 117/117/117
f 118/118/118 116/116/116 117/117/117
f 118/118/118 117/117/117 119/119/119
f 120/120/120 118/118/118 119/119/119
f 120/120/120 119/119/119 121/121/121
f 122/122/122 120/120/120 121/121/121
f 122/122/122 121/121/121 123/123/123
f 124/124/124 122/122/122 123/123/123
f 124/124/124 123/123/123 125/125/125
f 126/126/126 124/124/124 125/125/125
f 126/126/126 125/125/125 127/127/127
f 128/128/128 129/129/129 130/130/130
f 128/128/128 130/130/130 131/131/131
f 132/132/132 129/129/129 128/128/128
f 132/132/132 128/128/128 133/133/133
f 73/73/73 132/132/132 133/133/133
f 73/73/73 133/133/133 74/74/74
f 134/134/134 135/135/135 136/136/136
f 134/134/134 136/136/136 137/137/137
f 138/138/138 134/134/134 137/137/137
f 138/138/138 137/137/137 139/139/139
f 140/140/140 138/138/138 139/139/139
f 140/140/140 139/139/139 141/141/141
f 142/142/142 140/140/140 141/141/141
f 142/142/142 141/141/141 143/143/143
f 144/144/144 142/142/142 143/143/143
f 144/144/144 143/143/143 145/145/145
f 146/146/146 144/144/144 145/145/145
f 146/146/146 145/145/145 147/147/147
f 148/148/148 149/149/149 146/146/146
f 148/148/148 146/146/146 147/147/147
f 150/150/150 151/151/151 149/149/149
f 150/150/150 149/149/149 148/148/148
f 152/152/152 151/151/151 150/150/150
f 152/152/152 150/150/150 153/153/153
f 154/154/154 152/152/152 153/153/153
f 154/154/154 153/153/153 155/155/155
f 156/156/156 154/154/154 155/155/155
f 156/156/156 155/155/155 157/157/157
f 158/158/158 159/159/159 156/156/156
f 158/158/158 156/156/156 157/157/157
f 160/160/160 159/159/159 158/158/158
f 160/160/160 158/158/158 161/161/161
f 162/162/162 160/160/160 161/161/161
f 162/162/162 161/161/161 163/163/163
f 164/164/164 162/162/162 163/163/163
f 164/164/164 163/163/163 165/165/165
f 166/166/166 164/164/164 165/165/165
f 166/166/166 165/165/165 167/167/167
f 168/168/168 166/166/166 167/167/167
f 168/168/168 167/167/167 169/169/169
f 170/170/170 168/168/168 169/169/169
f 170/170/170 169/169/169 171/171/171
f 172/172/172 170/170/170 171/171/171
f 172/172/172 171/171/171 173/173/173
f 174/174/174 172/172/172 173/173/173
f 174/174/174 173/173/173 175/175/175
f 176/176/176 174/174/174 175/175/175
f 176/176/176 175/175/175 177/177/177
f 178/178/178 176/176/176 177/177/177
f 178/178/178 177/177/177 179/179/179
f 180/180/180 178/178/178 179/179/179
f 180/180/180 179/179/179 181/181/181
f 182/182/182 180/180/180 181/181/181
f 182/182/182 181/181/181 183/183/183
f 184/184/184 182/182/182 183/183/183
f 184/184/184 183/183/183 185/185/185
f 186/186/186 184/184/184 185/185/185
f 186/186/186 185/185/185 187/187/187
f 188/188/188 186/186/186 187/187/187
f 188/188/188 187/187/187 189/189/189
f 190/190/190 191/191/191 192/192/192
f 190/190/190 192/192/192 193/193/193
f 194/194/194 191/191/191 190/190/190
f 194/194/194 190/190/190 195/195/195
f 135/135/135 194/194/194 195/195/195
f 135/135/135 195/195/195 136/136/136
f 196/196/196 197/197/197 198/198/198
f 196/196/196 198/198/198 199/199/199
f 200/200/200 196/196/196 199/199/199
f 200/200/200 199/199/199 201/201/201
f 202/202/202 200/200/200 201/201/201
f 202/202/202 201/201/201 203/203/203
f 204/204/204 202/202/202 203/203/203
f 204/204/204 203/203/203 205/205/205
f 206/206/206 204/204/204 205/205/205
f 206/206/206 205/205/205 207/207/207
f 208/208/208 206/206/206 207/207/207
f 208/208/208 207/207/207 209/209/209
f 210/210/210 211/211/211 208/208/208
f 210/210/210 208/208/208 209/209/209
f 212/212/212 213/213/213 211/211/211
f 212/212/212 211/211/211 210/210/210
f 214/214/214 213/213/213 212/212/212
f 214/214/214 212/212/212 215/215/215
f 216/216/216 214/214/214 215/215/215
f 216/216/216 215/215/215 217/217/217
f 218/218/218 216/216/216 217/217/217
f 218/218/218 217/217/217 219/219/219
f 220/220/220 221/221/221 218/218/218
f 220/220/220 218/218/218 219/219/219
f 222/222/222 221/221/221 220/220/220
f 222/222/222 220/220/220 223/223/223
f 224/224/224 222/222/222 223/223/223
f 224/224/224 223/223/223 225/225/225
f 226/226/226 224/224/224 225/225/225
f 226/226/226 225/225/225 227/227/227
f 228/228/228 226/226/226 227/227/227
f 228/228/228 227/227/227 229/229/229
f 230/230/230 228/228/228 229/229/229
f 230/230/230 229/229/229 231/231/231
f 232/232/232 230/230/230 231/231/231
f 232/232/232 231/231/231 233/233/233
f 234/234/234 232/232/232 233/233/233
f 234/234/234 233/233/233 235/235/235
f 236/236/236 234/234/234 235/235/235
f 236/236/236 235/235/235 237/237/237
f 238/238/238 236/236/236 237/237/237
f 238/238/238 237/237/237 239/239/239
f 240/240/240 238/238/238 239/239/239
f 240/240/240 239/239/239 241/241/241
f 242/242/242 240/240/240 241/241/241
f 242/242/242 241/241/241 243/243/243
f 244/244/244 242/242/242 243/243/243
f 244/244/244 243/243/243 245/245/245
f 246/246/246 244/244/244 245/245/245
f 246/246/246 245/245/245 247/247/247
f 248/248/248 246/246/246 247/247/247
f 248/248/248 247/247/247 249/249/249
f 250/250/250 248/248/248 249/249/249
f 250/250/250 249/249/249 251/251/251
f 252/252/252 253/253/253 254/254/254
f 252/252/252 254/254/254 255/255/255
f 256/256/256 253/253/253 252/252/252
f 256/256/256 252/252/252 257/257/257
f 197/197/197 256/256/256 257/257/257
f 197/197/197 257/257/257 198/198/198
f 258/258/258 259/259/259 260/260/260
f 258/258/258 260/260/260 261/261/261
f 262/262/262 258/258/258 261/261/261
f 262/262/262 261/261/261 263/263/263
f 264/264/264 262/262/262 263/263/263
f 264/264/264 263/263/263 265/265/265
f 266/266/266 264/264/264 265/265/265
f 266/266/266 265/265/265 267/267/267
f 268/268/268 266/266/266 267/267/267
f 268/268/268 267/267/267 269/269/269
f 270/270/270 268/268/268 269/269/269
f 270/270/270 269/269/269 271/271/271
f 272/272/272 273/273/273 270/270/270
f 272/272/272 270/270/270 271/271/271
f 274/274/274 275/275/275 273/273/273
f 274/274/274 273/273/273 272/272/272
f 276/276/276 275/275/275 274/274/274
f 276/276/276 274/274/274 277/277/277
f 278/278/278 276/276/276 277/277/277
f 278/278/278 277/277/277 279/279/279
f 280/280/280 278/278/278 279/279/279
f 280/280/280 279/279/279 281/281/281
f 282/282/282 283/283/283 280/280/280
f 282/282/282 280/280/280 281/281/281
f 284/284/284 283/283/283 282/282/282
f 284/284/284 282/282/282 285/285/285
f 286/286/286 284/284/284 285/285/285
f 286/286/286 285/285/285 287/287/287
f 288/288/288 286/286/286 287/287/287
f 288/288/288 287/287/287 289/289/289
f 290/290/290 288/288/288 289/289/289
f 290/290/290 289/289/289 291/291/291
f 292/292/292 290/290/290 291/291/291
f 292/292/292 291/291/291 293/293/293
f 294/294/294 292/292/292 293/293/293
f 294/294/294 293/293/293 295/295/295
f 296/296/296 294/294/294 295/295/295
f 296/296/296 295/295/295 297/297/297
f 298/298/298 296/296/296 297/297/297
f 298/298/298 297/297/297 299/299/299
f 300/300/300 298/298/298 299/299/299
f 300/300/300 299/299/299 301/301/301
f 302/302/302 300/300/300 301/301/301
f 302/302/302 301/301/301 303/303/303
f 304/304/304 302/302/302 303/303/303
f 304/304/304 303/303/303 305/305/305
f 306/306/306 304/304/304 305/305/305
f 306/306/306 305/305/305 307/307/307
f 308/308/308 306/306/306 307/307/307
f 308/308/308 307/307/307 309/309/309
f 310/310/310 308/308/308 309/309/309
f 310/310/310 309/309/309 311/311/311
f 312/312/312 310/310/310 311/311/311
f 312/312/312 311/311/311 313/313/313
f 314/314/314 315/315/315 316/316/316
f 314/314/314 316/316/316 317/317/317
f 318/318/318 315/315/315 314/314/314
f 318/318/318 314/314/314 319/319/319
f 259/259/259 318/318/318 319/319/319
f 259/259/259 319/319/319 260/260/260
f 320/320/320 321/321/321 3/3/3
f 320/320/320 3/3/3 9/9/9
f 322/322/322 1/1/1 3/3/3
f 322/322/322 3/3/3 321/321/321
f 323/323/323 324/324/324 3/3/3
f 323/323/323 3/3/3 2/2/2
f 325/325/325 4/4/4 3/3/3
f 325/325/325 3/3/3 324/324/324
f 326/326/326 327/327/327 3/3/3
f 326/326/326 3/3/3 5/5/5
f 328/328/328 6/6/6 3/3/3
f 328/328/328 3/3/3 327/327/327
f 329/329/329 330/330/330 3/3/3
f 329/329/329 3/3/3 7/7/7
f 331/331/331 8/8/8 3/3/3
f 331/331/331 3/3/3 330/330/330
f 332/332/332 333/333/333 334/334/334
f 332/332/332 334/334/334 335/335/335
f 336/336/336 337/337/337 338/338/338
f 336/336/336 338/338/338 339/339/339
f 340/340/340 341/341/341 342/342/342
f 340/340/340 342/342/342 343/343/343
f 344/344/344 345/345/345 346/346/346
f 344/344/344 346/346/346 347/347/347
f 348/348/348 349/349/349 350/350/350
f 348/348/348 350/350/350 351/351/351
f 352/352/352 353/353/353 354/354/354
f 352/352/352 354/354/354 355/355/355
f 356/356/356 357/357/357 358/358/358
f 356/356/356 358/358/358 359/359/359
f 360/360/360 361/361/361 362/362/362
f 360/360/360 362/362/362 363/363/363
f 364/364/364 365/365/365 366/366/366
f 364/364/364 366/366/366 367/367/367
f 368/368/368 369/369/369 370/370/370
f 368/368/368 370/370/370 371/371/371
f 372/372/372 373/373/373 374/374/374
f 372/372/372 374/374/374 375/375/375
f 376/376/376 377/377/377 378/378/378
f 376/376/376 378/378/378 379/379/379
f 380/380/380 381/381/381 382/382/382
f 380/380/380 382/382/382 383/383/383
f 384/384/384 385/385/385 386/386/386
f 384/384/384 386/386/386 387/387/387
f 388/388/388 389/389/389 390/390/390
f 388/388/388 390/390/390 391/391/391
f 392/392/392 393/393/393 394/394/394
f 392/392/392 394/394/394 395/395/395
f 396/396/396 397/397/397 398/398/398
f 396/396/396 398/398/398 399/399/399
f 400/400/400 401/401/401 402/402/402
f 400/400/400 402/402/402 403/403/403
f 404/404/404 405/405/405 406/406/406
f 404/404/404 406/406/406 407/407/407
f 408/408/408 409/409/409 410/410/410
f 408/408/408 410/410/410 411/411/411
f 412/412/412 413/413/413 414/414/414
f 412/412/412 414/414/414 415/415/415
f 416/416/416 417/417/417 418/418/418
f 416/416/416 418/418/418 419/419/419
f 420/420/420 421/421/421 422/422/422
f 420/420/420 422/422/422 423/423/423
f 424/424/424 425/425/425 426/426/426
f 424/424/424 426/426/426 427/427/427
f 428/428/428 429/429/429 430/430/430
f 428/428/428 430/430/430 431/431/431
f 432/432/432 433/433/433 434/434/434
f 432/432/432 434/434/434 435/435/435
f 436/436/436 437/437/437 438/438/438
f 436/436/436 438/438/438 439/439/439
f 440/440/440 441/441/441 442/442/442
f 440/440/440 442/442/442 443/443/443