# https://github.com/mikedh/trimesh
mtllib material.mtl
usemtl material_0
v 0.22061781 -0.21332070 0.06660853
v 0.22061781 -0.21332070 -0.18201630
v -0.21772852 -0.21332070 -0.18201630
v -0.21772852 -0.21332070 0.06660853
v -0.25362588 -0.26321612 -0.21345756
v 0.25237310 -0.26321612 -0.21345756
v 0.25237310 -0.26321612 0.08502911
v -0.25362588 -0.26321612 0.08502911
vn 0.00000000 1.00000000 0.00000000
vn 0.00000000 1.00000000 0.00000000
vn 0.00000000 1.00000000 0.00000000
vn 0.00000000 1.00000000 0.00000000
vn 0.00000000 -1.00000000 0.00000000
vn 0.00000000 -1.00000000 0.00000000
vn 0.00000000 -1.00000000 0.00000000
vn 0.00000000 -1.00000000 0.00000000
vt 0.00050000 0.00050000
vt 0.00050000 0.45234100
vt 0.79713700 0.45234100
vt 0.79713700 0.00050000
vt 0.00050000 0.99950000
vt 0.92008500 0.99950000
vt 0.92008500 0.45703900
vt 0.00050000 0.45703900
f 1/1/1 2/2/2 3/3/3
f 1/1/1 3/3/3 4/4/4
f 5/5/5 6/6/6 7/7/7
f 5/5/5 7/7/7 8/8/8