# https://github.com/mikedh/trimesh
mtllib material.mtl
usemtl material_0
v 0.18033068 -0.27169086 0.18962619
v 0.17918034 -0.27198642 0.18583510
v 0.18213428 -0.27872137 0.18592159
v 0.18311501 -0.27846864 0.18915766
v 0.17878737 -0.27229458 0.18189455
v 0.18179841 -0.27898503 0.18255033
v 0.17918034 -0.27260274 0.17795317
v 0.18213428 -0.27924868 0.17917824
v 0.18033068 -0.27289830 0.17416208
v 0.18311501 -0.27950142 0.17594217
v 0.18220817 -0.27317119 0.17067159
v 0.18471289 -0.27973233 0.17297731
v 0.18472716 -0.27341049 0.16760765
v 0.18682465 -0.27993385 0.17040122
v 0.18780118 -0.27360530 0.16509873
v 0.18934532 -0.28009507 0.16832976
v 0.19130594 -0.27375140 0.16322712
v 0.19236728 -0.28077100 0.16682928
v 0.19511382 -0.27384040 0.16208098
v 0.19571838 -0.28035788 0.16562184
v 0.19906864 -0.27387147 0.16168885
v 0.19906864 -0.28038391 0.16529018
v 0.20241891 -0.28035788 0.16562184
v 0.20302431 -0.27384040 0.16208098
v 0.20683219 -0.27375140 0.16322712
v 0.20577001 -0.28077100 0.16682928
v 0.19906948 -0.27052204 0.20425232
v 0.19553197 -0.27055395 0.20385851
v 0.19612562 -0.27942333 0.20258894
v 0.19906948 -0.27945440 0.20300289
v 0.20201251 -0.27942333 0.20258894
v 0.20260615 -0.27055395 0.20385851
vn -0.87627314 -0.38048834 0.29559094
vn -0.89664910 -0.39062139 0.20841141
vn -0.89626590 -0.39038515 0.21049199
vn -0.87640736 -0.38040319 0.29530248
vn -0.91259413 -0.40769738 0.03089980
vn -0.91261030 -0.40750460 0.03290037
vn -0.89374214 -0.42412000 -0.14610689
vn -0.89410695 -0.42400330 -0.14420112
vn -0.84058337 -0.43989129 -0.31609374
vn -0.84115141 -0.43967460 -0.31488181
vn -0.75567231 -0.45408336 -0.47198270
vn -0.75659095 -0.45399457 -0.47059437
vn -0.64209726 -0.46669801 -0.60819740
vn -0.64369073 -0.46659328 -0.60659126
vn -0.51420390 -0.47200358 -0.71610542
vn -0.51368871 -0.47198963 -0.71648426
vn -0.35368363 -0.47587797 -0.80526272
vn -0.35649025 -0.47578699 -0.80407801
vn -0.17330024 -0.48050067 -0.85970119
vn -0.17680008 -0.48030021 -0.85910037
vn 0.00000000 -0.48390987 -0.87511784
vn 0.00000000 -0.48390987 -0.87511784
vn 0.17680008 -0.48030021 -0.85910037
vn 0.17330024 -0.48050067 -0.85970119
vn 0.25529991 -0.47559984 -0.84179971
vn 0.25529991 -0.47559984 -0.84179971
vn 0.00000000 -0.14409474 0.98956390
vn -0.12249974 -0.14309969 0.98209790
vn -0.12240124 -0.14310145 0.98210993
vn 0.00000000 -0.14420693 0.98954755
vn 0.12249974 -0.14309969 0.98209790
vn 0.12249974 -0.14309969 0.98209790
vt 0.41493200 0.29992900
vt 0.43364000 0.29992900
vt 0.43364000 0.25866500
vt 0.41493200 0.25866500
vt 0.45238400 0.29992900
vt 0.45238400 0.25866500
vt 0.47114400 0.29992900
vt 0.47114400 0.25866500
vt 0.48990300 0.29992900
vt 0.48990300 0.25866500
vt 0.50864200 0.29992900
vt 0.50864200 0.25866500
vt 0.52734400 0.29992900
vt 0.52734400 0.25866500
vt 0.54594400 0.29992900
vt 0.54594400 0.25866500
vt 0.56435900 0.29992900
vt 0.56435900 0.25866500
vt 0.58327400 0.29992900
vt 0.58327400 0.25866500
vt 0.60254600 0.29992900
vt 0.60254600 0.25866500
vt 0.62124700 0.25866500
vt 0.62124700 0.29992900
vt 0.63995200 0.29992900
vt 0.63995200 0.25866500
vt 0.92606200 0.22745700
vt 0.88953900 0.22826800
vt 0.89537800 0.33106800
vt 0.92588700 0.33094000
vt 0.95639600 0.33117100
vt 0.96258100 0.22839100
f 1/1/1 2/2/2 3/3/3
f 1/1/1 3/3/3 4/4/4
f 2/2/2 5/5/5 6/6/6
f 2/2/2 6/6/6 3/3/3
f 5/5/5 7/7/7 8/8/8
f 5/5/5 8/8/8 6/6/6
f 7/7/7 9/9/9 10/10/10
f 7/7/7 10/10/10 8/8/8
f 9/9/9 11/11/11 12/12/12
f 9/9/9 12/12/12 10/10/10
f 11/11/11 13/13/13 14/14/14
f 11/11/11 14/14/14 12/12/12
f 13/13/13 15/15/15 16/16/16
f 13/13/13 16/16/16 14/14/14
f 15/15/15 17/17/17 18/18/18
f 15/15/15 18/18/18 16/16/16
f 17/17/17 19/19/19 20/20/20
f 17/17/17 20/20/20 18/18/18
f 19/19/19 21/21/21 22/22/22
f 19/19/19 22/22/22 20/20/20
f 23/23/23 24/24/24 25/25/25
f 23/23/23 25/25/25 26/26/26
f 22/22/22 21/21/21 24/24/24
f 22/22/22 24/24/24 23/23/23
f 27/27/27 28/28/28 29/29/29
f 27/27/27 29/29/29 30/30/30
f 31/31/31 32/32/32 27/27/27
f 31/31/31 27/27/27 30/30/30